<svg xmlns="http://www.w3.org/2000/svg" width="1em" height="1em" viewBox="0 0 24 24"><g fill="none" fill-rule="evenodd"><path d="m12.593 23.258l-.011.002l-.071.035l-.02.004l-.014-.004l-.071-.035q-.016-.005-.024.005l-.004.01l-.017.428l.005.02l.01.013l.104.074l.015.004l.012-.004l.104-.074l.012-.016l.004-.017l-.017-.427q-.004-.016-.017-.018m.265-.113l-.013.002l-.185.093l-.01.01l-.003.011l.018.43l.005.012l.008.007l.201.093q.019.005.029-.008l.004-.014l-.034-.614q-.005-.018-.02-.022m-.715.002a.02.02 0 0 0-.027.006l-.006.014l-.034.614q.001.018.017.024l.015-.002l.201-.093l.01-.008l.004-.011l.017-.43l-.003-.012l-.01-.01z"/><path fill="#65a30d" d="M12 2C6.477 2 2 6.477 2 12s4.477 10 10 10s10-4.477 10-10S17.523 2 12 2m3.423 5.424a1 1 0 0 1 .21 1.399L14.024 11H15a1 1 0 0 1 0 2h-2v1h2a1 1 0 0 1 0 2h-2v1a1 1 0 1 1-2 0v-1H9a1 1 0 1 1 0-2h2v-1H9a1 1 0 1 1 0-2h.976L8.367 8.823a1 1 0 0 1 1.609-1.189L12 10.374l2.024-2.74a1 1 0 0 1 1.399-.21"/></g></svg>